<svg xmlns="http://www.w3.org/2000/svg" viewBox="0 0 64 64">
  <rect width="64" height="64" rx="14" fill="#F7F1ED"/>
  <path d="M32 50 C 18 39.5, 11 30, 11 21.5 C 11 14.5, 16 9.5, 22.5 9.5 C 27 9.5, 30.8 12.4, 32 16.2 C 33.2 12.4, 37 9.5, 41.5 9.5 C 48 9.5, 53 14.5, 53 21.5 C 53 30, 46 39.5, 32 50 Z"
        fill="#8A9A7B"/>
  <path d="M32 44.5 C 21.5 36.2, 16 28.6, 16 21.8 C 16 17.2, 19.2 14, 23.4 14 C 26.4 14, 29 16, 30 18.6"
        fill="none" stroke="#F7F1ED" stroke-width="2.4" stroke-linecap="round" stroke-dasharray="0.5 5.5"/>
</svg>
